<?xml version="1.0"?>
<svg width="400" height="120" xmlns="http://www.w3.org/2000/svg">

 <g>
  <title>background</title>
  <rect fill="none" id="canvas_background" height="122" width="402" y="-1" x="-1"/>
 </g>
 <g>
  <title>Layer 1</title>
  <g id="svgg">
   <path fill-rule="evenodd" fill="#000000" d="m94.578003,9.337006c-1.054001,0.552002 -1.82,1.47699 -1.829002,2.203995c-0.004997,0.462997 -0.133003,0.403 -0.781998,-0.369003c-2.407005,-2.862991 -7.608002,-1.065994 -8.064003,2.785995c-0.239998,2.030014 -0.092003,2.212006 3.983002,4.895004c3.258995,2.145004 5.703995,4.184998 5.703995,4.757996c0,0.539001 0.605003,0.147003 0.860001,-0.556c0.572006,-1.578995 1.020004,-2.225998 2.979004,-4.299988c4.222,-4.469009 4.686996,-5.623001 3.326996,-8.253006c-0.806,-1.559998 -4.203995,-2.201004 -6.177994,-1.164993m143.376999,3.929993c0.606995,0.222 1.164993,0.343994 1.238998,0.270004c0.179993,-0.181 -1.270004,-0.720001 -1.867996,-0.695007c-0.262009,0.011002 0.020996,0.202011 0.628998,0.425003m-131.497002,2.684998c-3.590004,0.87001 -7.859001,4.307007 -9.717003,7.822006c-0.589996,1.115005 -3.333,9.449005 -7.365997,22.375c-3.533997,11.328995 -6.518997,20.690994 -6.634003,20.804993c-1.050995,1.048004 -19.637997,-0.895996 -19.637997,-2.052994c0,-0.194 0.429001,-1.542999 0.953999,-2.998001c1.334,-3.697998 11.271004,-35.820999 11.125,-35.966995c-0.236,-0.236008 -6.557999,1.778 -6.782997,2.160995c-0.125999,0.216003 -2.644005,8.192001 -5.595001,17.725998c-6.743999,21.792007 -9.714001,29.141006 -14.924,36.930008c-6.659,9.955994 -16.825001,11.729996 -27.795002,4.850998c-3.215,-2.014999 -2.823,-2.005005 -4.685999,-0.119003c-1.789001,1.811005 -1.837,1.720001 1.635,3.095001c11.917,4.720993 25.021999,3.561996 31.917999,-2.822006c2.667,-2.468994 7.196999,-9.296997 11.103001,-16.733994c0.952,-1.813995 1.762001,-3.337997 1.799,-3.388c0.157001,-0.212997 1.981998,0.940994 4.581997,2.899994c4.881004,3.677002 8.958,8.514008 10.948006,12.988007l0.820999,1.847l2.511002,-0.070999l2.510994,-0.070999l2.467003,-7.848007c2.903999,-9.237 2.151001,-8.121994 5.700996,-8.440994c3.181,-0.285995 3.196007,-0.292999 3.483002,-1.455002l0.200005,-0.806l-3.003006,0.205002c-1.668999,0.113998 -3.001999,0.095993 -3.001999,-0.041c-0.002998,-0.927002 13.780998,-42.921997 14.608002,-44.505997c1.607002,-3.078003 3.862999,-4.710007 6.516998,-4.714005c1.076004,-0.001999 1.085999,-0.406998 0.028999,-1.169998c-0.888,-0.641006 -2.375,-0.837997 -3.768997,-0.501007m85.542,8.460999c-4.113007,1.019012 -9.914993,6.583008 -14.587006,13.987l-0.554001,0.879013l1.575012,2.155991c1.942001,2.658997 1.610001,2.761002 3.793991,-1.162994c4.92601,-8.852005 9.473007,-14.459 11.729004,-14.464005c2.755005,-0.005005 1.513992,4.975998 -6.296005,25.264008c-6.720001,17.457001 -8.153,22.385986 -7.919998,27.240997c0.244995,5.125 2.871002,7.570999 7.817001,7.281998c8.526001,-0.499008 18.874008,-12.990997 33.623001,-40.591995c2.725998,-5.101013 4.106995,-7.512009 3.880997,-6.775009c-0.427002,1.391998 -9.602997,27.798996 -11.084991,31.89801c-7.311005,20.230988 -14.048004,30.383987 -21.434006,32.306992c-3.567001,0.929001 -6.371002,0.363998 -14.181,-2.858002c-0.302002,-0.125 -2.343994,3.442001 -2.343994,4.093002c0,0.582001 5.787994,1.320999 10.302994,1.315002c14.695999,-0.018997 23.076004,-7.958008 31.919006,-30.240997c1.951996,-4.917007 16.560989,-48.311005 16.429993,-48.800003c-0.048996,-0.181 -1.263992,-0.035004 -3.253998,0.391998l-3.175995,0.681l-3.650009,7.371002c-15.447998,31.190994 -29.005997,49.293991 -37.007004,49.410995c-5.036987,0.074005 -4.304993,-5.436005 3.262009,-24.550995c4.537994,-11.464996 5.979996,-15.565002 6.893005,-19.606995c0.332993,-1.475006 0.709,-3.073013 0.834991,-3.552002c0.125,-0.478012 0.214996,-2.384003 0.197998,-4.234009c-0.052994,-6.050003 -2.320999,-8.541992 -6.770996,-7.440002m-43.617996,0.469009c-5.424011,2.67099 -13.550003,19.847992 -20.069,42.42099l-1.427002,4.940002l-2.016998,2.031006c-1.727005,1.738998 -1.964005,2.093994 -1.652,2.470001c0.502998,0.606003 0.700996,0.561996 1.797997,-0.401001l0.957001,-0.841003l-0.522003,2.182007c-1.316994,5.505997 -0.280998,7.967987 3.354996,7.967987c3.652008,0 10.636002,-3.952988 9.315002,-5.272995c-0.405991,-0.405991 -0.636993,-0.317993 -2.598999,0.994995c-6.207001,4.151001 -7.016006,2.173004 -3.804001,-9.300995l1.154007,-4.123001l2.552002,-2.792999c10.996994,-12.037003 17.164993,-24.722 17.164993,-35.300995c0,-4.785995 -1.348999,-6.382004 -4.205994,-4.973999m2.501999,2.600998c0.429001,0.800003 0.356995,4.127991 -0.14801,6.832001c-1.682999,9.022995 -7.085999,19.084991 -15.44899,28.770996l-1.069,1.238998l1.015991,-2.815994c9.434006,-26.147003 14.256012,-36.630997 15.650009,-34.026001m-108.272003,20.576004c-2.301998,1.450989 -2.417999,2.227997 -1.192001,7.952988c0.400002,1.864014 0.535004,3.306 0.444,4.728012c-0.070999,1.125992 -0.100998,2.046997 -0.065998,2.046997c0.035999,0 0.556,-0.210007 1.158001,-0.466995c0.767998,-0.32901 2.459999,-0.534012 5.698997,-0.690002c5.760002,-0.279007 6.241001,-0.425003 6.932003,-2.106003c1.540997,-3.75 -2.434002,-8.261002 -5.751003,-6.527008l-0.705997,0.369003l0.091999,-1.287994c0.221001,-3.102997 -3.994999,-5.666 -6.610001,-4.018997m-9.007999,15.914993c-2.211,0.772995 -3.427,2.244003 -3.813,4.612c-0.385,2.369003 0.587999,3.652008 6.257999,8.251007c2.047001,1.659988 4.471001,4.695999 4.471001,5.600998c0,0.699997 0.41,0.410995 1.081001,-0.764008c1.003998,-1.756989 2.406998,-3.177002 5.526997,-5.593002c2.816002,-2.179993 5.813004,-5.088989 5.813004,-5.641998c0,-1.899994 -1.186001,-4.37999 -2.576,-5.386993c-2.998001,-2.171005 -7.508003,-1.501999 -8.961002,1.330002c-0.516998,1.007004 -0.519001,1.007996 -0.698997,0.291c-0.545002,-2.173004 -4.406002,-3.641006 -7.101002,-2.699005m117.996006,2.369003c-7.037003,1.569 -12.920013,8.612991 -12.131012,14.524002c0.738998,5.543991 7.210007,6.25499 12.097,1.328995c1.5,-1.511993 2.306,-2.589996 4.311005,-5.766998c0.179001,-0.283997 -0.042999,0.738998 -0.494003,2.272003c-1.511002,5.141998 -0.837997,6.668991 2.934998,6.668991c2.951004,0 8.790009,-3.452988 8.235001,-4.869995c-0.278992,-0.712006 -0.542999,-0.630005 -2.187988,0.677994c-2.528,2.009003 -4.409012,2.585007 -4.834,1.480011c-0.126999,-0.332001 2.707001,-9.143997 4.745987,-14.755005c0.247009,-0.679001 0.449005,-1.283005 0.449005,-1.341003c0,-0.171997 -3.438995,-0.113998 -4.597992,0.078003c-1.059006,0.175003 -1.091003,0.220001 -3.313004,4.612c-3.686996,7.290009 -6.102005,10.470001 -8.572006,11.285004c-3.991989,1.317001 -4.416,-4.455002 -0.733002,-9.962006c2.96701,-4.435989 5.481003,-5.753998 8.42601,-4.417999c0.675995,0.307007 1.259003,0.557999 1.294998,0.557999c0.175995,0 0.789993,-2.281998 0.651993,-2.42099c-0.394989,-0.394012 -4.434998,-0.363007 -6.28299,0.048996m138.037994,-0.270996c-7.513,1.149994 -13.266998,7.031998 -13.266998,13.559998c0,4.242996 1.319,5.73999 5.052002,5.735001c3.661987,-0.005005 6.559998,-2.040009 9.839996,-6.908005c0.944,-1.399994 1.634003,-2.319 1.53299,-2.042999c-2.484985,6.826004 -1.764984,9.190994 2.710999,8.906998c3.480011,-0.222 9.45401,-4.425995 7.404999,-5.212006c-0.240997,-0.092987 -0.916992,0.268005 -1.603973,0.856003c-1.526001,1.306 -3.753021,2.414001 -4.473022,2.225998c-0.912994,-0.238998 -0.712982,-1.188995 1.800995,-8.549988c1.299011,-3.804001 2.451019,-7.202011 2.559021,-7.55101c0.190979,-0.621002 0.148987,-0.634995 -1.869995,-0.60199c-3.51001,0.056992 -3.390015,-0.028 -5.184998,3.636002c-4.937012,10.079987 -8.848022,14.220993 -11.478027,12.151993c-4.527985,-3.561996 4.707001,-16.796997 9.878998,-14.158997c0.642029,0.328003 1.231018,0.595993 1.309021,0.595993c0.218994,0 0.837982,-2.242996 0.665009,-2.414993c-0.21402,-0.214996 -3.855011,-0.38501 -4.877014,-0.227997m49.027008,0.112991c-2.490997,0.262009 -2.042023,-0.242004 -3.38501,3.800003c-2.812012,8.468002 -2.738007,13.024002 0.244995,15.057999c4.690002,3.199997 13.696014,-5.432007 17.88501,-17.141006l0.744995,-2.082993l-0.889984,0.177002c-0.489014,0.097992 -1.313019,0.177994 -1.831024,0.177994c-0.872986,0 -0.962982,0.087006 -1.237,1.199997c-2.889984,11.726013 -10.10199,19.853012 -11.884979,13.394012c-0.365021,-1.322006 1.704987,-10.421005 3.27298,-14.382004c0.218018,-0.550995 0.343994,-0.542999 -2.919983,-0.201004m-230.53701,0.380997c-7.098999,1.731003 -11.919998,9.689011 -9.213997,15.210007c2.429001,4.955994 11.421997,4.914001 16.411995,-0.076004c7.453003,-7.453003 2.657005,-17.535995 -7.197998,-15.134003m127.734001,-0.099991c-6.574997,1.376999 -11.498001,8.466003 -9.882996,14.233002c1.617996,5.780991 10.904999,6.490997 16.496994,1.261002c7.710999,-7.214005 3.292007,-17.567001 -6.613998,-15.494003m26.112,0.126999c-9.421005,2.076996 -15.722,10.561005 -12.526001,16.865997c2.115005,4.169998 9.695007,1.533997 14.390015,-5.003998c0.501984,-0.699005 0.952972,-1.229996 1.002991,-1.181c0.214996,0.216003 -2.731018,9.093994 -3.106018,9.356995c-0.228973,0.160004 -1.594971,1.117004 -3.03598,2.126007c-5.394012,3.776993 -8.690002,7.576996 -9.281998,10.701996c-1.264008,6.662994 6.521988,7.688995 11.440994,1.507004c1.773987,-2.230011 4.109009,-7.085999 5.600006,-11.643997l1.246002,-3.811005l2.080994,-1.270004c4.490997,-2.742996 5.294983,-3.436996 4.747009,-4.097992c-0.282013,-0.340012 -0.582001,-0.235001 -1.929016,0.672989c-2.279999,1.536011 -4.277985,2.666 -4.277985,2.419998c0,-0.115997 0.763,-2.796997 1.694,-5.956985c2.029999,-6.886002 2.003998,-6.192001 0.242981,-6.42601c-0.798004,-0.104996 -1.798981,-0.261993 -2.222992,-0.345993c-0.716003,-0.143997 -0.855988,-0.003998 -1.917999,1.919998c-6.247009,11.313995 -14.820999,14.587006 -10.997009,4.196991c3.037018,-8.251999 9.89502,-11.143997 16.042999,-6.765991l0.838013,0.595993l0.398987,-0.955994c1.013,-2.423996 1.053009,-2.356995 -1.727997,-2.867004c-2.949005,-0.541992 -6.35199,-0.556992 -8.701996,-0.037994m109.653992,-0.040009c-2.985992,0.820007 -6.335999,4.285004 -8.842987,9.14801c-0.830994,1.613998 -0.703003,1.022995 0.876984,-4.040009c0.850006,-2.725998 1.488007,-5.015991 1.417023,-5.08699c-0.117004,-0.117004 -5.902008,0.659988 -6.016022,0.80899c-0.108978,0.141006 -4.639984,17.417999 -4.639984,17.690002c0,0.186996 0.994995,0.296997 2.681,0.296997c1.824005,0 2.682007,-0.102997 2.682007,-0.322998c0,-0.606995 3.884003,-8.36499 5.229004,-10.444992c2.634979,-4.075012 4.960999,-6.184998 6.335999,-5.749008c1.221985,0.388 1.122986,1.152008 -1.024017,7.906998c-2.225006,7.001999 -1.656006,8.891998 2.674011,8.891998c3.092987,-0.000992 9.233978,-4.107986 8.069,-5.395996c-0.451996,-0.498001 -0.53302,-0.46199 -2.041992,0.917007c-2.051025,1.873993 -3.787018,2.748001 -4.41803,2.223999c-0.570984,-0.473999 -0.493988,-0.82901 1.435028,-6.613007c2.790985,-8.363998 1.306,-11.802994 -4.417023,-10.231003m-301.185989,1.748001c1.630997,0.221008 4.902,0.488007 7.268997,0.593002c2.368004,0.104996 4.305,0.266006 4.305,0.359009c0.000999,0.091995 -0.845001,2.794998 -1.877998,6.005997l-1.878998,5.839005l-0.965004,-1.605011c-2.310997,-3.841995 -5.379997,-7.162994 -9.440002,-10.214996c-2.126999,-1.600006 -2.256996,-1.75 -1.363998,-1.574005c0.543999,0.10701 2.321999,0.376007 3.952003,0.597m42.076996,-0.424988c1.939003,1.037994 1.667999,5.866989 -0.596001,10.609985c-4.119995,8.633011 -10.651993,6.672012 -7.628998,-2.290985c2.186005,-6.480011 5.464005,-9.796005 8.224998,-8.319m127.837997,0.440994c3.262009,2.744003 -2.175995,15.640991 -6.595001,15.640991c-3.296997,0 -3.718994,-4.359985 -1.000992,-10.355988c2.386002,-5.264999 5.251999,-7.258011 7.595993,-5.285004m19.777008,24.304001c-2.311005,7.007004 -3.729004,9.830994 -5.358002,10.673996c-4.306,2.225998 -4.266998,-4.175003 0.054993,-9.015991c1.420013,-1.59201 6.179016,-5.59201 6.39502,-5.376007c0.054993,0.054993 -0.436005,1.729004 -1.09201,3.718002" id="path0"/>
   <path fill-rule="evenodd" fill="#550055" id="path1"/>
   <path fill-rule="evenodd" fill="#6d006d" id="path2"/>
   <path fill-rule="evenodd" fill="#740074" id="path3"/>
   <path fill-rule="evenodd" fill="#7f007f" d="m315.013,71.843994c-1.315002,0.887009 -1.511993,1.158005 -1.516998,2.081009c-0.003998,0.671997 -0.071991,0.701004 -1.431,0.606995c-2.567993,-0.177994 -4.373016,1.104996 -4.295013,3.052002c0.026001,0.658997 -0.118988,1.231995 -0.363983,1.434998c-1.175018,0.975998 -0.248993,4.307999 1.291992,4.645996l0.85199,0.187012l-0.710999,0.845001c-1.406982,1.671997 -0.571991,4.230988 1.516998,4.648987c0.572998,0.115005 0.94101,0.425003 1.176025,0.994003c0.840973,2.029007 4.289978,1.809006 5.608002,-0.358002l0.518982,-0.852997l0.619995,0.871002c1.753998,2.462997 4,2.376999 6.548004,-0.253006c2.165009,-2.235001 2.640015,-3.487991 1.845001,-4.871994c-0.43399,-0.757004 -0.425995,-0.809006 0.196991,-1.216003c1.345001,-0.882004 1.863007,-4.22699 0.772003,-4.990997c-0.304993,-0.214005 -0.528992,-0.709 -0.528992,-1.166c0,-1.235001 -1.598999,-2.729996 -2.917999,-2.729996c-0.963013,0 -1.056,-0.072998 -1.223999,-0.966003c-0.492004,-2.623993 -5.243011,-3.794998 -7.957001,-1.962006m6.367004,0.796005c1.119995,1.072998 1.109985,2.044998 -0.033997,3.669998c-0.69101,0.979996 -0.981995,1.201004 -1.266998,0.964005c-0.20401,-0.169006 -0.552002,-0.237 -0.774017,-0.152008c-0.221985,0.085007 -0.479004,-0.041992 -0.570984,-0.281998c-0.28302,-0.737 -1.082001,0.14801 -0.917023,1.014999c0.140015,0.730011 -0.421997,0.242004 -0.750977,-0.653c-0.084015,-0.228989 -0.257019,-0.228989 -0.644012,-0.000992c-0.763,0.450989 -2.34201,-1.929001 -2.149994,-3.238998c0.322998,-2.199005 5.238007,-3.113007 7.108002,-1.322006m-8.358002,2.679001c0.901001,0.343002 1.777985,1.292999 2.131989,2.309998c0.278015,0.796005 0.274017,0.800003 -0.381989,0.369995c-0.955994,-0.625992 -1.229004,0.016006 -0.393005,0.925003l0.665009,0.723999l-0.666016,-0.347c-0.806976,-0.42099 -1.514984,0.036011 -0.942993,0.609009c0.460999,0.460999 0.424988,0.789993 -0.084991,0.789993c-0.537994,0 -0.554993,0.736008 -0.022003,0.94101c0.246002,0.093994 0.342987,0.378998 0.248993,0.735992c-0.182983,0.701996 -4.834991,0.897995 -5.391998,0.227005c-0.600983,-0.725006 -0.665009,-1.819 -0.169006,-2.921997c0.270996,-0.605011 0.463013,-1.548004 0.425018,-2.097c-0.124023,-1.818008 2.432983,-3.082001 4.580994,-2.266006m12.610992,0.770004c0.703003,0.590988 0.869019,0.921997 0.777008,1.548996c-0.084015,0.572006 0.069,0.972992 0.539001,1.414993c0.77298,0.726013 0.848999,1.861008 0.214996,3.198013c-0.63501,1.337997 -1.921997,1.453995 -5.345001,0.482986l-0.847015,-0.240997l0.917023,-0.182999c0.929993,-0.186996 1.328003,-1.044998 0.483978,-1.044998c-0.340973,0 -0.370972,-0.117004 -0.140991,-0.546005c0.447998,-0.837997 0.355011,-1.229996 -0.255005,-1.070999c-0.471985,0.124008 -0.502991,0.070999 -0.222992,-0.376999c0.427002,-0.682999 0.044006,-1.039993 -0.649994,-0.606995c-0.869995,0.542999 -0.871002,0.418991 -0.006012,-0.862c1.725006,-2.556 2.973022,-3.027008 4.535004,-1.712997m-12.233002,7.619995c-0.434998,0.434006 0.423004,0.936996 1.037994,0.608994c0.552002,-0.293991 0.570007,-0.279999 0.208008,0.159012c-0.529999,0.641998 0.015015,1.291 0.645996,0.76799c0.343994,-0.285995 0.388,-0.246002 0.261017,0.238007c-0.160004,0.612 0.561005,0.850998 0.901978,0.298004c0.426025,-0.689011 0.706024,-0.157013 0.705017,1.340988c-0.002991,3.634003 -4.01001,5.67601 -5.160004,2.630005c-0.216003,-0.572998 -0.55899,-0.865997 -1.153992,-0.985001c-2.59201,-0.518997 -2.333008,-4.640991 0.315979,-5.041992c1.334015,-0.202011 2.431,-0.210007 2.238007,-0.016006m10.899017,0.274994c2.298981,0.38501 2.643982,4.62001 0.376984,4.62001c-0.213989,0 -0.549988,0.386993 -0.746002,0.860001c-0.618988,1.496002 -2.385986,2.063995 -3.932983,1.263992c-1.725006,-0.891998 -3.150024,-5.041992 -1.675018,-4.87999c0.567017,0.062988 0.661011,-0.037003 0.596008,-0.631012l-0.07901,-0.705994l0.447021,0.634995c0.507996,0.721008 1.261993,0.848007 1.261993,0.212006c0,-0.233002 0.19101,-0.423996 0.423981,-0.423996c0.233002,0 0.423004,-0.132004 0.423004,-0.294006c0,-0.567001 0.710999,-1.113007 1.27002,-0.973999c0.311005,0.076996 1.04599,0.220001 1.634003,0.317993" id="path4"/>
  </g>
 </g>
</svg>