<svg width="77" height="100" viewBox="0 0 77 100" fill="none" xmlns="http://www.w3.org/2000/svg">
<path d="M3.02112 2.45697L2.01562 1.45147C2.38862 1.07847 2.83212 0.772969 3.33362 0.542969L3.92613 1.83497C3.57863 1.99447 3.27412 2.20397 3.02112 2.45697Z" fill="white"/>
<path d="M72.377 67.582C72.3705 66.845 72.2655 66.0125 72.0665 65.1065L73.4545 64.801C73.6755 65.803 73.7915 66.7345 73.7985 67.5705L72.377 67.582ZM71.3555 62.643C71.091 61.8795 70.7705 61.0685 70.4055 60.2315L71.7085 59.6615C72.0885 60.5325 72.422 61.379 72.699 62.1765L71.3555 62.643ZM69.291 57.8705C68.913 57.1225 68.498 56.345 68.0585 55.562L69.299 54.866C69.748 55.668 70.1725 56.462 70.56 57.23L69.291 57.8705ZM66.7355 53.2985C66.2905 52.57 65.8235 51.8285 65.333 51.0755L66.5255 50.2995C67.023 51.0645 67.498 51.8185 67.949 52.5595L66.7355 53.2985ZM63.8685 48.888C63.381 48.18 62.875 47.463 62.3505 46.739L63.502 45.905C64.0335 46.639 64.5465 47.365 65.0395 48.083L63.8685 48.888ZM60.784 44.6215C60.261 43.9315 59.725 43.236 59.173 42.535L60.2895 41.6555C60.847 42.363 61.3895 43.066 61.917 43.7635L60.784 44.6215ZM57.523 40.4785C56.9735 39.806 56.412 39.13 55.838 38.451L56.923 37.533C57.503 38.218 58.0705 38.9005 58.6245 39.5795L57.523 40.4785ZM54.119 36.451C53.545 35.7955 52.961 35.1375 52.366 34.4785L53.422 33.5265C54.021 34.191 54.61 34.8535 55.1885 35.5145L54.119 36.451ZM50.5845 32.5335C49.9905 31.8945 49.3865 31.2545 48.7735 30.6145L49.801 29.6315C50.418 30.276 51.0265 30.921 51.6255 31.5645L50.5845 32.5335ZM46.934 28.722C46.6265 28.4105 46.3175 28.099 46.0065 27.788C45.6935 27.4755 45.3805 27.165 45.0685 26.8565L46.067 25.8445C46.382 26.155 46.6965 26.4675 47.0115 26.782C47.3255 27.095 47.6375 27.4095 47.9465 27.724L46.934 28.722ZM43.1765 25.0175C42.5365 24.4045 41.8965 23.801 41.2575 23.207L42.2255 22.1655C42.8695 22.7645 43.515 23.373 44.1595 23.991L43.1765 25.0175ZM39.3105 21.4245C38.652 20.83 37.994 20.2465 37.339 19.6735L38.2745 18.603C38.936 19.1805 39.599 19.7695 40.2635 20.3695L39.3105 21.4245ZM35.339 17.9535C34.66 17.3795 33.984 16.8175 33.3115 16.268L34.2105 15.1665C34.889 15.721 35.572 16.2885 36.257 16.868L35.339 17.9535ZM31.255 14.6185C30.5545 14.067 29.8585 13.53 29.1685 13.0085L30.026 11.8745C30.723 12.4015 31.4265 12.944 32.1345 13.501L31.255 14.6185ZM27.051 11.442C26.326 10.918 25.609 10.4115 24.9005 9.9235L25.707 8.7525C26.424 9.2465 27.15 9.759 27.884 10.29L27.051 11.442ZM22.715 8.4595C21.9615 7.97 21.22 7.5025 20.4915 7.0595L21.231 5.845C21.971 6.2955 22.725 6.77 23.4905 7.268L22.715 8.4595ZM18.227 5.7345C17.445 5.296 16.668 4.881 15.9175 4.502L16.5585 3.233C17.3275 3.6215 18.123 4.0455 18.923 4.4945L18.227 5.7345ZM13.557 3.3885C12.7225 3.024 11.911 2.7045 11.1445 2.4385L11.6105 1.0955C12.4115 1.373 13.258 1.7065 14.126 2.0855L13.557 3.3885ZM8.68153 1.7305C7.77553 1.5315 6.94303 1.4275 6.20703 1.4215L6.21853 0C7.05353 0.0065 7.98503 0.122 8.98703 0.3425L8.68153 1.7305Z" fill="white"/>
<path d="M72.3478 71.7796L71.3418 70.7736C71.5953 70.5206 71.8048 70.2161 71.9633 69.8691L73.2558 70.4616C73.0268 70.9621 72.7213 71.4056 72.3478 71.7796Z" fill="white"/>
<path d="M2.01623 71.7798C-1.49927 68.2693 1.94473 60.2689 5.45272 54.1749C10.2662 45.8129 18.0407 36.0844 27.3427 26.7823C47.0602 7.06285 66.8292 -4.06365 72.3462 1.45035L71.3417 2.45635C67.0732 -1.80865 48.7787 7.35485 28.3482 27.7878C19.1317 37.0043 11.4382 46.6278 6.68473 54.8848C2.14373 62.7729 0.808225 68.5643 3.02023 70.7738L2.01623 71.7798Z" fill="white"/>
<path d="M37.1836 7.0332C20.8446 7.0362 7.60156 20.2762 7.60156 36.6147C7.60156 45.2757 11.3226 53.0552 17.2451 58.4682C17.5261 58.7137 17.8071 58.9547 18.0921 59.2032C22.7176 63.4182 25.6221 69.4807 25.6221 76.2262V81.5842H37.1841H48.7356V76.2262C48.7356 69.4807 51.6431 63.4182 56.2686 59.2032C56.5501 58.9547 56.8321 58.7137 57.1176 58.4682C63.0361 53.0557 66.7616 45.2757 66.7616 36.6147C66.7616 20.2762 53.5196 7.0362 37.1836 7.0332Z" fill="#FCCA46"/>
<path d="M39.2862 48.527L35.0727 34.485L33.5312 39.6365H25.8672V38.128H32.4077L35.0702 29.2305L39.2862 43.281L40.8347 38.128H48.4907V39.6365H41.9557L39.2862 48.527Z" fill="white"/>
<path d="M34.6488 82.0333L26.3184 38.2227L25.2068 38.434L33.5372 82.2446L34.6488 82.0333Z" fill="#003A6A"/>
<path d="M49.1565 38.4341L48.0449 38.2227L39.7101 82.0328L40.8217 82.2443L49.1565 38.4341Z" fill="#003A6A"/>
<path d="M50.7585 38.8827C50.7585 40.1322 49.745 41.1427 48.492 41.1427C47.242 41.1427 46.2285 40.1322 46.2285 38.8827C46.2285 37.6292 47.242 36.6152 48.492 36.6152C49.7445 36.6152 50.7585 37.6287 50.7585 38.8827Z" fill="#003A6A"/>
<path d="M28.1289 38.8827C28.1289 40.1322 27.1154 41.1427 25.8684 41.1427C24.6184 41.1427 23.6094 40.1322 23.6094 38.8827C23.6094 37.6292 24.6184 36.6152 25.8684 36.6152C27.1159 36.6152 28.1289 37.6287 28.1289 38.8827Z" fill="#003A6A"/>
<path d="M50.092 81.582H24.2695V95.227H50.092V81.582Z" fill="#003A6A"/>
<path d="M51.2619 83.5371H23.0879V85.4796H51.2619V83.5371Z" fill="#085488"/>
<path d="M51.2619 87.4355H23.0879V89.3885H51.2619V87.4355Z" fill="#085488"/>
<path d="M51.2619 91.334H23.0879V93.2865H51.2619V91.334Z" fill="#085488"/>
<path d="M45.5766 95.2266H28.7891V100H45.5766V95.2266Z" fill="#085488"/>
<path d="M68.2128 73.2517C64.2633 73.2517 59.0273 70.8147 54.7368 68.3452C46.3733 63.5322 36.6448 55.7582 27.3433 46.4552C7.62582 26.7342 -3.49967 6.96667 2.01533 1.45117L3.02083 2.45667C-1.24367 6.72067 7.91633 25.0142 28.3483 45.4497C37.5643 54.6662 47.1878 62.3592 55.4458 67.1122C63.3348 71.6527 69.1273 72.9897 71.3413 70.7747L72.3473 71.7807C71.3063 72.8217 69.8733 73.2517 68.2128 73.2517Z" fill="white"/>
<path d="M71.9633 3.36022C71.8048 3.01222 71.5948 2.70772 71.3418 2.45472L72.3478 1.44922C72.7203 1.82222 73.0258 2.26522 73.2558 2.76672L71.9633 3.36022Z" fill="white"/>
<path d="M6.22684 73.2301L6.21484 71.8086C6.95084 71.8016 7.78384 71.6981 8.69034 71.4981L8.99584 72.8876C7.99284 73.1081 7.06134 73.2231 6.22684 73.2301ZM11.6198 72.1331L11.1538 70.7891C11.9168 70.5251 12.7283 70.2051 13.5663 69.8396L14.1353 71.1421C13.2638 71.5226 12.4178 71.8561 11.6198 72.1331ZM16.5658 69.9951L15.9248 68.7256C16.6743 68.3476 17.4518 67.9326 18.2348 67.4931L18.9303 68.7336C18.1293 69.1831 17.3338 69.6076 16.5658 69.9951ZM21.2388 67.3826L20.4998 66.1676C21.2283 65.7251 21.9698 65.2581 22.7233 64.7676L23.4983 65.9601C22.7328 66.4576 21.9793 66.9326 21.2388 67.3826ZM25.7148 64.4746L24.9098 63.3031C25.6183 62.8161 26.3353 62.3096 27.0598 61.7851L27.8923 62.9381C27.1583 63.4686 26.4323 63.9816 25.7148 64.4746ZM30.0353 61.3536L29.1768 60.2201C29.8668 59.6971 30.5628 59.1611 31.2638 58.6096L32.1433 59.7256C31.4353 60.2836 30.7318 60.8261 30.0353 61.3536ZM34.2198 58.0606L33.3208 56.9591C33.9933 56.4096 34.6693 55.8486 35.3483 55.2746L36.2663 56.3591C35.5813 56.9396 34.8983 57.5071 34.2198 58.0606ZM38.2848 54.6251L37.3478 53.5551C38.0033 52.9811 38.6614 52.3971 39.3209 51.8021L40.2724 52.8581C39.6083 53.4576 38.9458 54.0466 38.2848 54.6251ZM42.2343 51.0616L41.2659 50.0206C41.9044 49.4261 42.5448 48.8221 43.1848 48.2091L44.1679 49.2356C43.5233 49.8541 42.8788 50.4626 42.2343 51.0616ZM46.0754 47.3831L45.0768 46.3711C45.3868 46.0651 45.6974 45.7576 46.0064 45.4481C46.3204 45.1341 46.6319 44.8196 46.9423 44.5051L47.9543 45.5036C47.6423 45.8201 47.3278 46.1371 47.0118 46.4531C46.7003 46.7646 46.3884 47.0746 46.0754 47.3831ZM49.8078 43.5951L48.7818 42.6111C49.3949 41.9711 49.9989 41.3316 50.5914 40.6926L51.6338 41.6606C51.0348 42.3051 50.4269 42.9501 49.8078 43.5951ZM53.4289 39.6996L52.3733 38.7466C52.9683 38.0876 53.5523 37.4296 54.1263 36.7741L55.1959 37.7106C54.6174 38.3711 54.0289 39.0346 53.4289 39.6996ZM56.9309 35.6931L55.8459 34.7741C56.4199 34.0961 56.9814 33.4201 57.5304 32.7471L58.6319 33.6461C58.0784 34.3246 57.5114 35.0081 56.9309 35.6931ZM60.2969 31.5696L59.1804 30.6901C59.7318 29.9891 60.2684 29.2936 60.7894 28.6036L61.9244 29.4611C61.3964 30.1576 60.8539 30.8611 60.2969 31.5696ZM63.5089 27.3196L62.3564 26.4861C62.8799 25.7616 63.3869 25.0441 63.8744 24.3356L65.0454 25.1416C64.5519 25.8591 64.0389 26.5856 63.5089 27.3196ZM66.5304 22.9241L65.3379 22.1491C65.8279 21.3956 66.2954 20.6541 66.7389 19.9251L67.9539 20.6646C67.5029 21.4051 67.0279 22.1586 66.5304 22.9241ZM69.3054 18.3566L68.0649 17.6621C68.5059 16.8741 68.9209 16.0966 69.2969 15.3516L70.5664 15.9926C70.1804 16.7556 69.7569 17.5511 69.3054 18.3566ZM71.7139 13.5596L70.4099 12.9921C70.7768 12.1481 71.0959 11.3361 71.3589 10.5786L72.7029 11.0446C72.4278 11.8361 72.0954 12.6826 71.7139 13.5596ZM73.4564 8.42013L72.0669 8.11563C72.2659 7.20813 72.3699 6.37512 72.3769 5.64062L73.7979 5.65263C73.7909 6.48563 73.6764 7.41613 73.4564 8.42013Z" fill="white"/>
<path d="M3.33313 72.6884C2.83113 72.4569 2.38813 72.1504 2.01562 71.7779L3.02262 70.7734C3.27513 71.0264 3.57963 71.2364 3.92813 71.3959L3.33313 72.6884Z" fill="white"/>
<path d="M23.4917 7.26725C22.7257 6.76875 21.9722 6.29475 21.2317 5.84375L20.4922 7.05825C21.2212 7.50225 21.9622 7.96875 22.7152 8.45825L23.4917 7.26725Z" fill="#D9D8D7"/>
<path d="M26.2441 9.13095C26.0661 9.00645 25.8841 8.87395 25.7071 8.75195L25.1191 9.60645C25.4901 9.44095 25.8646 9.28245 26.2441 9.13095Z" fill="#D9D8D7"/>
<path d="M64.665 25.6818C64.7895 25.5033 64.924 25.3198 65.0465 25.1418L64.1875 24.5508C64.354 24.9243 64.513 25.2998 64.665 25.6818Z" fill="#D9D8D7"/>
<path d="M67.9475 52.5588C67.497 51.8193 67.0225 51.0658 66.524 50.3008L65.332 51.0748C65.822 51.8293 66.289 52.5703 66.733 53.2988L67.9475 52.5588Z" fill="#D9D8D7"/>
<path d="M66.7398 19.9258C66.2958 20.6548 65.8298 21.3958 65.3398 22.1498L66.5308 22.9238C67.0293 22.1588 67.5033 21.4048 67.9543 20.6648L66.7398 19.9258Z" fill="#D9D8D7"/>
<path d="M65.0378 48.0822C64.9183 47.9072 64.7863 47.7282 64.6638 47.5527C64.5148 47.9257 64.3608 48.2952 64.1973 48.6612L65.0378 48.0822Z" fill="#D9D8D7"/>
<path d="M70.5635 15.9926L69.295 15.3516C68.916 16.1011 68.502 16.8781 68.0625 17.6616L69.302 18.3571C69.7515 17.5556 70.177 16.7601 70.5635 15.9926Z" fill="#D9D8D7"/>
<path d="M69.2901 57.8727L70.5601 57.2322C70.1756 56.4712 69.7511 55.6747 69.2981 54.8672L68.0586 55.5632C68.5011 56.3527 68.9161 57.1297 69.2901 57.8727Z" fill="#D9D8D7"/>
<path d="M72.6973 62.1771C72.4208 61.3796 72.0868 60.5336 71.7068 59.6621L70.4043 60.2316C70.7698 61.0691 71.0898 61.8816 71.3548 62.6441L72.6973 62.1771Z" fill="#D9D8D7"/>
<path d="M73.7984 5.65263L72.3774 5.64062C72.3714 6.37713 72.2664 7.21013 72.0684 8.11563L73.4559 8.42062C73.6774 7.41912 73.7924 6.48763 73.7984 5.65263Z" fill="#D9D8D7"/>
<path d="M49.6365 9.78461C60.442 2.40011 68.66 -0.223892 71.3415 2.45561V2.45461C71.5945 2.70861 71.8035 3.01311 71.963 3.36061L73.2555 2.76761C73.0245 2.26561 72.7195 1.82261 72.3465 1.45011L71.8445 1.95211L72.3465 1.44911C68.8265 -2.06839 59.507 1.19311 48.1055 9.12661C48.623 9.33311 49.1335 9.55161 49.6365 9.78461Z" fill="#D9D8D7"/>
<path d="M71.3577 10.5781C71.0922 11.3441 70.7722 12.1561 70.4082 12.9911L71.7107 13.5601C72.0907 12.6911 72.4237 11.8451 72.7007 11.0441L71.3577 10.5781Z" fill="#D9D8D7"/>
<path d="M22.604 64.8438C21.892 65.3058 21.1875 65.7498 20.498 66.1698L21.2375 67.3843C21.9035 66.9788 22.583 66.5478 23.269 66.1048C23.0585 65.6768 22.839 65.2558 22.604 64.8438Z" fill="#D9D8D7"/>
<path d="M11.1523 70.7898L11.6188 72.1328C12.4163 71.8558 13.2628 71.5223 14.1338 71.1423L13.5653 69.8398C12.7278 70.2038 11.9158 70.5248 11.1523 70.7898Z" fill="#D9D8D7"/>
<path d="M15.9258 68.7261L16.5668 69.9946C17.3348 69.6071 18.1303 69.1826 18.9318 68.7336L18.2363 67.4941C17.4528 67.9326 16.6758 68.3471 15.9258 68.7261Z" fill="#D9D8D7"/>
<path d="M18.922 4.49488C18.122 4.04638 17.3265 3.62238 16.557 3.23438L15.916 4.50238C16.6675 4.88188 17.444 5.29638 18.2265 5.73538L18.922 4.49488Z" fill="#D9D8D7"/>
<path d="M72.0645 65.1063C72.264 66.0138 72.3684 66.8463 72.3749 67.5818L73.7974 67.5693C73.7899 66.7353 73.6734 65.8038 73.4529 64.8008L72.0645 65.1063Z" fill="#D9D8D7"/>
<path d="M71.9625 69.8691C71.8045 70.2156 71.595 70.5206 71.3415 70.7736L71.8445 71.2766L71.3415 70.7746C68.8385 73.2751 61.504 71.1526 51.7475 64.8496C51.513 65.2601 51.2935 65.6806 51.084 66.1071C58.129 70.6441 64.186 73.1901 68.2785 73.1901C70.011 73.1901 71.392 72.7341 72.3465 71.7796C72.347 71.7796 72.347 71.7796 72.347 71.7796C72.7205 71.4071 73.0265 70.9631 73.257 70.4616L71.9625 69.8691Z" fill="#D9D8D7"/>
<path d="M14.126 2.0857C13.258 1.7072 12.4115 1.3737 11.6105 1.0957L11.1445 2.4387C11.911 2.7047 12.7225 3.0242 13.557 3.3887L14.126 2.0857Z" fill="#D9D8D7"/>
<path d="M8.98703 0.343C7.98553 0.1215 7.05353 0.0065 6.21853 0L6.20703 1.421C6.94403 1.427 7.77653 1.5315 8.68103 1.731L8.98703 0.343Z" fill="#D9D8D7"/>
<path d="M2.51885 71.2765L3.02085 70.7735C0.808354 68.5645 2.14435 62.7725 6.68535 54.8845C7.76185 53.015 8.99585 51.072 10.3569 49.0825C10.1214 48.5765 9.89735 48.064 9.68985 47.543C8.10185 49.8215 6.67985 52.043 5.45285 54.174C1.94485 60.268 -1.49865 68.2675 2.01535 71.779C2.01585 71.779 2.01585 71.779 2.01585 71.779C2.38835 72.1525 2.83135 72.4575 3.33285 72.688L3.92635 71.3955C3.57885 71.237 3.27435 71.0275 3.02135 70.7745L2.51885 71.2765Z" fill="#D9D8D7"/>
<path d="M10.3485 24.161C2.96305 13.354 0.340048 5.13502 3.01955 2.45602C3.27255 2.20302 3.57755 1.99402 3.92505 1.83352L3.33205 0.541016C2.83005 0.772016 2.38705 1.07752 2.01405 1.45002C-1.50395 4.96802 1.75655 14.288 9.69005 25.6925C9.89605 25.1745 10.1145 24.664 10.3485 24.161Z" fill="#D9D8D7"/>
<path d="M6.21289 71.8085L6.22489 73.2306C7.05989 73.2236 7.99139 73.1081 8.99389 72.8876L8.68789 71.498C7.78189 71.698 6.94889 71.8025 6.21289 71.8085Z" fill="#D9D8D7"/>
<path d="M76.4579 4.97358C76.4579 6.84558 74.9399 8.36608 73.0674 8.36608C71.1894 8.36608 69.6719 6.84558 69.6719 4.97358C69.6719 3.10108 71.1894 1.58008 73.0674 1.58008C74.9399 1.58008 76.4579 3.10108 76.4579 4.97358Z" fill="#085488"/>
<path d="M74.3682 1.8418C74.7982 2.3813 75.0577 3.0608 75.0577 3.8083C75.0577 5.5513 73.6427 6.9678 71.9007 6.9678C71.1537 6.9678 70.4737 6.7058 69.9297 6.2723C70.4447 7.5023 71.6507 8.3663 73.0672 8.3663C74.9397 8.3663 76.4577 6.8458 76.4577 4.9738C76.4577 3.5588 75.5952 2.3483 74.3682 1.8418Z" fill="#003A6A"/>
<path d="M59.9545 68.5513C59.9545 70.4208 58.4325 71.9438 56.565 71.9438C54.6905 71.9438 53.168 70.4208 53.168 68.5513C53.168 66.6718 54.6905 65.1563 56.565 65.1563C58.4325 65.1558 59.9545 66.6718 59.9545 68.5513Z" fill="#085488"/>
<path d="M57.8621 65.4141C58.2931 65.9561 58.5571 66.6346 58.5571 67.3836C58.5571 69.1281 57.1391 70.5446 55.3966 70.5446C54.6486 70.5446 53.9696 70.2841 53.4316 69.8496C53.9386 71.0786 55.1461 71.9436 56.5651 71.9436C58.4326 71.9436 59.9546 70.4206 59.9546 68.5511C59.9541 67.1381 59.0961 65.9266 57.8621 65.4141Z" fill="#003A6A"/>
</svg>
