<svg width="89" height="100" viewBox="0 0 89 100" fill="none" xmlns="http://www.w3.org/2000/svg">
<path d="M45.2684 48.084H43.7344V50H45.2684V48.084Z" fill="#CCCBCA"/>
<path d="M45.2684 44.4094H43.7344V40.7354H45.2684V44.4094ZM45.2684 37.0599H43.7344V33.3854H45.2684V37.0599ZM45.2684 29.7114H43.7344V26.0359H45.2684V29.7114ZM45.2684 22.3629H43.7344V18.6864H45.2684V22.3629ZM45.2684 15.0129H43.7344V11.3379H45.2684V15.0129Z" fill="#CCCBCA"/>
<path d="M45.2684 5.74805H43.7344V7.66405H45.2684V5.74805Z" fill="#CCCBCA"/>
<path d="M45.2684 50H43.7344V51.918H45.2684V50Z" fill="#CCCBCA"/>
<path d="M45.2684 88.6618H43.7344V84.9873H45.2684V88.6618ZM45.2694 81.3133H43.7354V77.6383H45.2694V81.3133ZM45.2694 73.9653H43.7354V70.2893H45.2694V73.9653ZM45.2694 66.6153H43.7354V62.9423H45.2694V66.6153ZM45.2694 59.2648H43.7354V55.5918H45.2694V59.2648Z" fill="#CCCBCA"/>
<path d="M45.2684 92.3359H43.7344V94.2504H45.2684V92.3359Z" fill="#CCCBCA"/>
<path d="M8.22183 71.83L7.45508 70.502L5.79453 71.4607L6.56128 72.7887L8.22183 71.83Z" fill="#CCCBCA"/>
<path d="M11.4037 69.9943L10.6367 68.6663L13.8192 66.8278L14.5857 68.1563L11.4037 69.9943ZM17.7682 66.3193L17.0017 64.9903L20.1837 63.1553L20.9507 64.4828L17.7682 66.3193ZM24.1327 62.6453L23.3662 61.3168L26.5477 59.4788L27.3152 60.8073L24.1327 62.6453ZM30.4977 58.9703L29.7302 57.6438L32.9122 55.8053L33.6782 57.1338L30.4977 58.9703ZM36.8592 55.2958L36.0947 53.9678L39.2772 52.1328L40.0417 53.4588L36.8592 55.2958Z" fill="#CCCBCA"/>
<path d="M43.2254 51.6225L42.4609 50.2935L42.9684 49.999L42.4609 49.706L43.2254 48.377L46.0364 49.999L43.2254 51.6225Z" fill="#CCCBCA"/>
<path d="M39.2772 47.8684L36.0947 46.0324L36.8592 44.7044L40.0417 46.5424L39.2772 47.8684ZM32.9122 44.1954L29.7302 42.3574L30.4977 41.0314L33.6787 42.8664L32.9122 44.1954ZM26.5477 40.5214L23.3662 38.6834L24.1327 37.3549L27.3152 39.1929L26.5477 40.5214ZM20.1837 36.8454L17.0017 35.0104L17.7682 33.6814L20.9507 35.5189L20.1837 36.8454ZM13.8192 33.1719L10.6367 31.3339L11.4037 30.0059L14.5857 31.8434L13.8192 33.1719Z" fill="#CCCBCA"/>
<path d="M8.22281 28.1692L6.5625 27.2109L5.7959 28.5391L7.45622 29.4974L8.22281 28.1692Z" fill="#CCCBCA"/>
<path d="M83.2001 28.5366L82.4336 27.209L80.7739 28.1672L81.5404 29.4948L83.2001 28.5366Z" fill="#CCCBCA"/>
<path d="M49.7245 47.8684L48.959 46.5424L52.1415 44.7044L52.9065 46.0324L49.7245 47.8684ZM56.0885 44.1954L55.324 42.8664L58.5045 41.0314L59.2705 42.3574L56.0885 44.1954ZM62.453 40.5214L61.686 39.1929L64.8685 37.3549L65.635 38.6834L62.453 40.5214ZM68.817 36.8454L68.0505 35.5184L71.2325 33.6809L71.999 35.0104L68.817 36.8454ZM75.1815 33.1719L74.4145 31.8434L77.597 30.0059L78.3635 31.3339L75.1815 33.1719Z" fill="#CCCBCA"/>
<path d="M45.7773 51.6225L42.9668 49.999L45.7773 48.377L46.5423 49.706L46.0338 49.999L46.5423 50.2935L45.7773 51.6225Z" fill="#CCCBCA"/>
<path d="M77.597 69.9943L74.4145 68.1563L75.1815 66.8278L78.3635 68.6663L77.597 69.9943ZM71.2325 66.3193L68.0505 64.4828L68.817 63.1553L71.999 64.9903L71.2325 66.3193ZM64.8675 62.6453L61.6855 60.8073L62.452 59.4788L65.634 61.3168L64.8675 62.6453ZM58.5045 58.9703L55.324 57.1338L56.0885 55.8053L59.2705 57.6438L58.5045 58.9703ZM52.1415 55.2973L48.959 53.4588L49.7245 52.1328L52.9065 53.9683L52.1415 55.2973Z" fill="#CCCBCA"/>
<path d="M83.2079 71.4633L81.5488 70.5039L80.7814 71.831L82.4405 72.7904L83.2079 71.4633Z" fill="#CCCBCA"/>
<path d="M44.502 95.1374L42.459 93.9579L43.224 92.6309L44.502 93.3669L45.7785 92.6309L46.543 93.9579L44.502 95.1374Z" fill="#CCCBCA"/>
<path d="M39.2762 92.1208L36.0937 90.2828L36.8587 88.9543L40.0402 90.7928L39.2762 92.1208ZM32.9122 88.4458L29.7302 86.6098L30.4977 85.2818L33.6787 87.1183L32.9122 88.4458ZM26.5477 84.7718L23.3662 82.9338L24.1327 81.6053L27.3152 83.4433L26.5477 84.7718ZM20.1837 81.0968L17.0017 79.2603L17.7682 77.9313L20.9507 79.7688L20.1837 81.0968ZM13.8192 77.4218L10.6367 75.5853L11.4037 74.2578L14.5857 76.0933L13.8192 77.4218Z" fill="#CCCBCA"/>
<path d="M7.45556 73.7465L5.41406 72.5655V70.209H6.94606V71.6815L8.22206 72.418L7.45556 73.7465Z" fill="#CCCBCA"/>
<path d="M6.94561 66.5343H5.41361V62.8608H6.94561V66.5343ZM6.94561 59.1868H5.41361V55.5118H6.94561V59.1868ZM5.41361 51.8388L5.41211 48.1623H6.94411L6.94561 51.8388H5.41361ZM6.94411 44.4893H5.41211V40.8148H6.94411V44.4893ZM6.94411 37.1398H5.41211V33.4668H6.94411V37.1398Z" fill="#CCCBCA"/>
<path d="M6.94411 29.79H5.41211V27.4335L7.45511 26.252L8.22161 27.5805L6.94411 28.316V29.79Z" fill="#CCCBCA"/>
<path d="M11.4037 25.742L10.6367 24.4145L13.8192 22.5775L14.5857 23.9065L11.4037 25.742ZM17.7682 22.0675L17.0017 20.739L20.1837 18.9015L20.9507 20.2295L17.7682 22.0675ZM24.1327 18.3925L23.3662 17.065L26.5477 15.228L27.3152 16.5565L24.1327 18.3925ZM30.4977 14.718L29.7302 13.39L32.9122 11.5525L33.6782 12.8805L30.4977 14.718ZM36.8592 11.044L36.0947 9.71495L39.2772 7.87695L40.0417 9.20545L36.8592 11.044Z" fill="#CCCBCA"/>
<path d="M43.2254 7.36833L42.4609 6.04033L44.5019 4.86133L46.5434 6.04033L45.7794 7.36833L44.5019 6.63183L43.2254 7.36833Z" fill="#CCCBCA"/>
<path d="M77.596 25.742L74.4135 23.9065L75.1805 22.5775L78.3625 24.4145L77.596 25.742ZM71.2315 22.067L68.051 20.229L68.8175 18.9025L71.998 20.74L71.2315 22.067ZM64.868 18.3925L61.686 16.5555L62.4525 15.227L65.6345 17.065L64.868 18.3925ZM58.5035 14.718L55.3225 12.8805L56.088 11.5525L59.2705 13.39L58.5035 14.718ZM52.1405 11.044L48.959 9.20545L49.7235 7.87695L52.9055 9.71495L52.1405 11.044Z" fill="#CCCBCA"/>
<path d="M83.5892 29.79H82.0567V28.316L80.7812 27.5805L81.5477 26.252L83.5892 27.4335V29.79Z" fill="#CCCBCA"/>
<path d="M83.5886 66.5343H82.0566V62.8608H83.5886V66.5343ZM83.5886 59.1868H82.0566V55.5118H83.5886V59.1868ZM83.5886 51.8388H82.0566V48.1623H83.5886V51.8388ZM83.5886 44.4893H82.0566V40.8148H83.5886V44.4893ZM83.5886 37.1398H82.0566V33.4668H83.5886V37.1398Z" fill="#CCCBCA"/>
<path d="M81.5477 73.7465L80.7812 72.418L82.0567 71.6815V70.209H83.5892V72.5655L81.5477 73.7465Z" fill="#CCCBCA"/>
<path d="M49.7235 92.1208L48.959 90.7928L52.1405 88.9543L52.9055 90.2828L49.7235 92.1208ZM56.088 88.4458L55.3225 87.1183L58.5035 85.2803L59.2705 86.6083L56.088 88.4458ZM62.4525 84.7718L61.686 83.4433L64.868 81.6053L65.6345 82.9338L62.4525 84.7718ZM68.8175 81.0968L68.051 79.7688L71.233 77.9303L71.9995 79.2588L68.8175 81.0968ZM75.182 77.4218L74.415 76.0933L77.5975 74.2578L78.364 75.5853L75.182 77.4218Z" fill="#CCCBCA"/>
<path d="M11.1589 24.9991C12.7459 27.7486 11.8039 31.2666 9.05392 32.8511C6.30492 34.4411 2.79042 33.4971 1.20292 30.7491C-0.384581 27.9996 0.55692 24.4836 3.30742 22.8941C6.05642 21.3066 9.56992 22.2491 11.1589 24.9991Z" fill="#E6E5E5"/>
<path d="M49.4781 2.87393C51.0666 5.62493 50.1251 9.14043 47.3756 10.7254C44.6246 12.3134 41.1097 11.3719 39.5212 8.62243C37.9337 5.87443 38.8757 2.35793 41.6262 0.770434C44.3746 -0.816066 47.8921 0.126434 49.4781 2.87393Z" fill="#003A6A"/>
<path d="M87.8012 24.9995C89.3882 27.749 88.4467 31.266 85.6962 32.8515C82.9487 34.44 79.4327 33.4975 77.8472 30.7495C76.2567 28 77.2002 24.483 79.9487 22.8945C82.6987 21.306 86.2122 22.2495 87.8012 24.9995Z" fill="#E6E5E5"/>
<path d="M87.8014 69.2495C89.3884 71.9995 88.4469 75.516 85.6964 77.103C82.9464 78.693 79.4329 77.75 77.8474 74.999C76.2569 72.2485 77.1994 68.733 79.9489 67.146C82.6989 65.559 86.2124 66.5005 87.8014 69.2495Z" fill="#003A6A"/>
<path d="M49.4782 91.3752C51.0667 94.1252 50.1252 97.6402 47.3742 99.2292C44.6247 100.816 41.1082 99.8742 39.5212 97.1242C37.9337 94.3752 38.8757 90.8587 41.6252 89.2732C44.3747 87.6857 47.8922 88.6277 49.4782 91.3752Z" fill="#E6E5E5"/>
<path d="M11.1576 69.2487C12.7446 71.9987 11.8026 75.5152 9.05108 77.1037C6.30258 78.6922 2.78908 77.7492 1.20108 74.9982C-0.386425 72.2492 0.554575 68.7322 3.30558 67.1467C6.05508 65.5582 9.56858 66.5012 11.1576 69.2487Z" fill="#003A6A"/>
<path d="M44.5029 67.164C53.9829 67.164 61.6679 59.479 61.6679 49.999C61.6679 40.519 53.9829 32.834 44.5029 32.834C35.0229 32.834 27.3379 40.519 27.3379 49.999C27.3379 59.479 35.0229 67.164 44.5029 67.164Z" fill="#FCCA46"/>
<path d="M49.7527 44.041H39.2497L38.5352 59.3175H50.4757L49.7527 44.041Z" fill="#003A6A"/>
<path d="M32.6376 62.6006L32.6121 62.6816L31.8976 64.9541H31.8946L30.9531 67.9331H58.0516L57.1116 64.9541L56.0781 61.6911C55.9136 61.1656 55.6376 60.6691 55.2391 60.2401C54.8416 59.8096 54.3691 59.4971 53.8586 59.2906L48.4316 57.1361C48.1586 57.0276 47.9126 56.8356 47.7346 56.5786C47.5556 56.3101 47.4721 56.0171 47.4721 55.7211V53.0781H41.5366V55.7211C41.5366 56.0171 41.4496 56.3101 41.2741 56.5786C41.0936 56.8361 40.8511 57.0276 40.5786 57.1361L35.1516 59.2906C34.6411 59.4971 34.1686 59.8096 33.7696 60.2401C33.3681 60.6691 33.0926 61.1661 32.9251 61.6911L32.6376 62.6006Z" fill="white"/>
<path d="M44.5068 39.6387C41.2568 39.6387 38.9473 42.0042 38.9473 47.0182C38.9473 51.2597 41.4353 54.8402 44.5068 54.8402C47.5738 54.8402 50.0643 51.2602 50.0643 47.0182C50.0643 42.0042 47.7503 39.6387 44.5068 39.6387Z" fill="white"/>
<path d="M49.492 39.9062H44.5055H39.5135C39.5135 39.9062 38.805 44.8927 39.7115 45.9082C39.75 45.4957 40.1135 45.3797 40.774 45.3772C40.774 45.3772 41.3335 44.7577 41.7335 43.0462C42.036 44.2092 41.8965 45.4242 41.8965 45.4242C42.6075 45.4732 43.4805 45.5467 44.5055 45.5512C44.7655 45.5497 45.0165 45.5452 45.252 45.5397C45.252 45.5397 45.5555 45.3533 45.687 44.9062C45.8785 45.1497 45.9015 45.5047 45.9015 45.5047C48.037 45.3902 49.2245 45.1412 49.294 45.9077C50.2035 44.8927 49.492 39.9062 49.492 39.9062Z" fill="#003A6A"/>
<path d="M40.5797 57.135C40.8517 57.0265 41.0947 56.8345 41.2752 56.5775C41.4507 56.309 41.5377 56.016 41.5377 55.72V54.592H39.8667C39.6507 53.0185 39.5282 51.463 39.5282 49.991C39.5282 45.6385 39.8302 44.007 41.0327 42.5385C42.5872 40.647 44.5067 40.253 44.5067 40.253C44.5067 40.253 46.4257 40.6475 47.9792 42.5385C49.1832 44.007 49.4762 45.6385 49.4762 49.991C49.4762 51.463 49.3612 53.0185 49.1422 54.592H47.4737V55.72C47.4737 56.016 47.5572 56.309 47.7362 56.5775C47.9137 56.835 48.1602 57.0265 48.4332 57.135L51.5412 58.3725C51.9232 57.8945 52.1187 57.32 52.1187 56.7405V54.592C52.1187 50.987 52.0087 46.2835 51.2472 42.849C50.5807 39.9035 48.0652 37.059 44.5067 37.8315C40.9467 37.059 38.4322 39.9035 37.7652 42.849C36.9957 46.284 36.8887 50.987 36.8887 54.592V56.7405C36.8887 57.3195 37.0867 57.8945 37.4747 58.3725L40.5797 57.135Z" fill="#003A6A"/>
<path d="M35.6562 67.9326H53.3438C52.5187 66.1276 52.0073 63.6876 52.0073 60.9981C52.0073 60.1766 52.0592 59.3821 52.1488 58.6166H52.1442L50.6917 58.0391L50.0658 60.5496C49.7727 61.7496 49.0877 62.8686 48.0382 63.6871C46.9838 64.5106 45.8192 64.8581 44.5047 64.8581C43.1842 64.8581 42.0182 64.5111 40.9688 63.6871C39.9218 62.8681 39.2347 61.7496 38.9417 60.5496L38.3138 58.0391L36.8657 58.6166H36.8522C36.9412 59.3816 36.9933 60.1766 36.9933 60.9981C36.9928 63.6876 36.4812 66.1276 35.6562 67.9326Z" fill="#003A6A"/>
</svg>
