<svg width="100" height="100" viewBox="0 0 100 100" fill="none" xmlns="http://www.w3.org/2000/svg">
<g clip-path="url(#clip0_5817_18)">
<path d="M66.5486 70.5039H33.4348L26.959 76.9744V96.3787H73.0171V76.9744L66.5486 70.5039Z" fill="#085488"/>
<path d="M62.0015 77.9531H37.9707V88.9226H62.0015V77.9531Z" fill="#FDD683"/>
<path d="M26.959 76.9744L33.4348 70.5039L26.959 96.3787V76.9744Z" fill="#003A6A"/>
<path d="M73.0193 76.9744L66.5508 70.5039L73.0193 96.3787V76.9744Z" fill="#003A6A"/>
<path d="M77.1661 96.3789H22.8301V100H77.1661V96.3789Z" fill="#003A6A"/>
<path d="M19.4952 10.8814H25.3329C25.8966 14.4085 28.6181 17.447 31.4804 17.447V14.8046C30.0612 14.8046 27.8769 12.5499 27.8769 9.55524V8.23242H16.8184V9.55524C16.8184 23.3059 24.2707 29.7047 29.199 33.9364C30.1822 34.7872 31.0935 35.563 31.844 36.3228L33.7226 34.4509C32.9196 33.6492 31.9557 32.8263 30.9214 31.9302C26.2622 27.9285 19.938 22.497 19.4952 10.8814Z" fill="#FCCA46"/>
<path d="M72.1237 8.23242V9.55524C72.1237 12.5499 69.9367 14.8047 68.5175 14.8047V17.447C71.3812 17.447 74.1006 14.4085 74.6623 10.8814H80.5093C80.0593 22.497 73.737 27.9285 69.0779 31.9302C68.0416 32.8263 67.0823 33.6492 66.2773 34.4509L68.1539 36.3228C68.9057 35.5623 69.8171 34.7866 70.8049 33.9364C75.7305 29.7047 83.1802 23.3059 83.1802 9.55524V8.23242H72.1237Z" fill="#FCCA46"/>
<path d="M70.0297 32.5851C70.0297 37.7122 68.0681 42.8326 64.1588 46.7459C60.2528 50.6619 55.125 52.6129 49.9993 52.6129C44.8715 52.6129 39.7451 50.6612 35.8358 46.7459C31.9271 42.832 29.9648 37.7122 29.9648 32.5851V4.65625H70.029V32.5851H70.0297Z" fill="#FDD683"/>
<path d="M72.123 0H27.877V4.65713H72.123V0Z" fill="#FCCA46"/>
<path d="M60.0929 67.6309H39.9062V70.5045H60.0929V67.6309Z" fill="#FCCA46"/>
<path d="M51.7006 59.2117V56.1113H48.2952V59.2117C48.2952 63.8522 44.5461 67.6299 39.9062 67.6299H60.0929C55.4471 67.6299 51.7006 63.8522 51.7006 59.2117Z" fill="#FDD683"/>
<path d="M54.3151 52.1484H45.6875V54.5435C45.6875 55.2135 45.9481 55.8822 46.4553 56.3948C46.9664 56.9033 47.6318 57.1552 48.2972 57.1552H51.7027C52.3661 57.1552 53.0348 56.9033 53.5467 56.3948C54.0552 55.8822 54.3151 55.2135 54.3151 54.5435V52.1484Z" fill="#FCCA46"/>
<path d="M62.1116 0H55.082V19.4289L58.5925 15.9144L62.1116 19.4289V0Z" fill="#E84855"/>
</g>
<defs>
<clipPath id="clip0_5817_18">
<rect width="100" height="100" fill="white"/>
</clipPath>
</defs>
</svg>
