<svg width="100" height="100" viewBox="0 0 100 100" fill="none" xmlns="http://www.w3.org/2000/svg">
<path d="M90.455 50.002C90.455 61.1755 85.9245 71.2885 78.6035 78.6095L85.3575 85.358C94.405 76.305 100 63.8075 100 50.002H90.455Z" fill="#003A6A"/>
<path d="M50.0015 9.54686C72.343 9.54686 90.455 27.6589 90.455 50.0004C90.455 50.0019 90.455 50.0019 90.455 50.0019H100C100 22.3914 77.608 0.00585938 50 0.00585938V9.54686C50.001 9.54686 50.001 9.54686 50.0015 9.54686Z" fill="#E6E5E5"/>
<path d="M49.9932 9.5465V0C43.2237 0 36.7602 1.358 30.8672 3.81L34.5172 12.624C39.2852 10.646 44.5097 9.548 49.9932 9.5465Z" fill="#83C1E7"/>
<path d="M50.0005 90.454C27.658 90.454 9.54695 72.343 9.54695 50.0005C9.54695 33.1465 19.86 18.7025 34.5175 12.6245L30.8675 3.81055C12.7505 11.3045 0.00195312 29.181 0.00195312 50.008C0.00195312 77.616 22.3925 100.001 49.9935 100.001C63.795 100.001 76.3015 94.4221 85.351 85.3671L78.5949 78.6145C71.2759 85.929 61.167 90.454 50.0005 90.454Z" fill="#1C8CC4"/>
<path d="M84.0907 50.0007C84.0907 68.8297 68.8307 84.0912 49.9997 84.0912C31.1747 84.0912 15.9102 68.8302 15.9102 50.0007C15.9102 31.1717 31.1747 15.9102 49.9997 15.9102C68.8307 15.9102 84.0907 31.1717 84.0907 50.0007Z" fill="#003A6A"/>
<path d="M78.0732 50.0003C78.0732 65.5038 65.5107 78.0693 50.0007 78.0693C34.4997 78.0693 21.9277 65.5038 21.9277 50.0003C21.9277 34.4968 34.5002 21.9258 50.0007 21.9258C65.5107 21.9258 78.0732 34.4968 78.0732 50.0003Z" fill="#D9D8D7"/>
<path d="M76.7878 50.0003C76.7878 64.7898 64.7903 76.7843 49.9988 76.7843C35.2068 76.7843 23.2168 64.7898 23.2168 50.0003C23.2168 35.2068 35.2068 23.2148 49.9988 23.2148C64.7903 23.2148 76.7878 35.2068 76.7878 50.0003Z" fill="white"/>
<path d="M50.6982 25.4816C50.6982 25.8686 50.3867 26.1801 49.9997 26.1801C49.6167 26.1801 49.3047 25.8681 49.3047 25.4816C49.3047 25.1001 49.6167 24.7891 49.9997 24.7891C50.3862 24.7891 50.6982 25.1001 50.6982 25.4816Z" fill="#003A6A"/>
<path d="M38.3481 28.4209C38.5386 28.7549 38.4256 29.1789 38.0921 29.3729C37.7591 29.5644 37.3356 29.4494 37.1441 29.1149C36.9526 28.7819 37.0651 28.3609 37.3966 28.1684C37.7326 27.9754 38.1556 28.0884 38.3481 28.4209Z" fill="#003A6A"/>
<path d="M29.1201 37.1383C29.4506 37.3343 29.5656 37.7548 29.3716 38.0923C29.1806 38.4243 28.7621 38.5363 28.4226 38.3413C28.0921 38.1523 27.9781 37.7283 28.1681 37.3978C28.3636 37.0568 28.7876 36.9473 29.1201 37.1383Z" fill="#003A6A"/>
<path d="M25.4875 49.3027C25.874 49.3027 26.1845 49.6137 26.1845 50.0007C26.186 50.3822 25.874 50.6932 25.4875 50.6932C25.106 50.6932 24.7925 50.3822 24.791 50.0007C24.7925 49.6137 25.1055 49.3027 25.4875 49.3027Z" fill="#003A6A"/>
<path d="M28.4229 61.6559C28.7624 61.4619 29.1809 61.5724 29.3764 61.9109C29.5679 62.2444 29.4524 62.6649 29.1204 62.8589C28.7874 63.0499 28.3664 62.9399 28.1724 62.6094C27.9784 62.2689 28.0944 61.8469 28.4229 61.6559Z" fill="#003A6A"/>
<path d="M37.1439 70.8822C37.3379 70.5492 37.7589 70.4372 38.0949 70.6282C38.4254 70.8202 38.5389 71.2432 38.3479 71.5782C38.1579 71.9102 37.7339 72.0247 37.4019 71.8307C37.0649 71.6357 36.9524 71.2122 37.1439 70.8822Z" fill="#003A6A"/>
<path d="M49.3047 74.5134C49.3047 74.1264 49.6177 73.8164 50.0032 73.8164C50.3867 73.8164 50.6992 74.1259 50.6982 74.5134C50.6992 74.8974 50.3867 75.2059 50.0047 75.2059C49.6162 75.2059 49.3047 74.8974 49.3047 74.5134Z" fill="#003A6A"/>
<path d="M61.6626 71.5783C61.4661 71.2413 61.5806 70.8198 61.9156 70.6263C62.2486 70.4348 62.6691 70.5478 62.8616 70.8823C63.0546 71.2123 62.9401 71.6358 62.6116 71.8298C62.2771 72.0248 61.8516 71.9088 61.6626 71.5783Z" fill="#003A6A"/>
<path d="M70.8841 62.8573C70.5521 62.6633 70.4371 62.2408 70.6326 61.9033C70.8206 61.5713 71.2456 61.4593 71.5791 61.6548C71.9136 61.8463 72.0251 62.2663 71.8366 62.6008C71.6426 62.9383 71.2161 63.0468 70.8841 62.8573Z" fill="#003A6A"/>
<path d="M74.5153 50.6933C74.1298 50.6918 73.8228 50.3803 73.8203 49.9953C73.8203 49.6098 74.1298 49.3002 74.5168 49.3027C74.8993 49.3002 75.2113 49.6098 75.2113 49.9928C75.2113 50.3823 74.8993 50.6918 74.5153 50.6933Z" fill="#003A6A"/>
<path d="M71.5802 38.343C71.2467 38.5355 70.8252 38.4205 70.6286 38.086C70.4386 37.7545 70.5536 37.332 70.8881 37.14C71.2176 36.947 71.6447 37.0565 71.8347 37.3895C72.0262 37.726 71.9147 38.1495 71.5802 38.343Z" fill="#003A6A"/>
<path d="M62.8594 29.1174C62.6654 29.4494 62.2464 29.5614 61.9079 29.3689C61.5789 29.1789 61.4644 28.7549 61.6609 28.4209C61.8499 28.0869 62.2754 27.9739 62.6044 28.1654C62.9379 28.3594 63.0504 28.7824 62.8594 29.1174Z" fill="#003A6A"/>
<path d="M50.8467 50H49.1602V63.6095H50.8467V50Z" fill="#003A6A"/>
<path d="M68.239 49.4355H51.3965V50.5595H68.239V49.4355Z" fill="#003A6A"/>
<path d="M53.136 49.9996C53.136 51.7266 51.733 53.1316 50.0015 53.1316C48.276 53.1316 46.873 51.7266 46.873 49.9996C46.873 48.2691 48.276 46.8691 50.0015 46.8691C51.733 46.8691 53.136 48.2691 53.136 49.9996Z" fill="#003A6A"/>
<path d="M53.2231 52.7437L52.7491 53.2217L36.8711 37.3437L37.3451 36.8652L53.2231 52.7437Z" fill="#E84855"/>
<path d="M52.0877 49.9992C52.0877 51.1507 51.1547 52.0892 49.9987 52.0892C48.8462 52.0892 47.9102 51.1507 47.9102 50.0007C47.9102 48.8467 48.8497 47.9122 50.0002 47.9102C51.1547 47.9102 52.0877 48.8452 52.0877 49.9992Z" fill="#E84855"/>
<path d="M51.0494 49.9991C51.0494 50.5756 50.5759 51.0386 50.0014 51.0386C49.4294 51.0386 48.9609 50.5756 48.9609 49.9991C48.9609 49.4181 49.4299 48.9551 50.0014 48.9551C50.5754 48.9551 51.0494 49.4181 51.0494 49.9991Z" fill="#353F49"/>
</svg>
